<?xml version="1.0" standalone="no"?>
<!DOCTYPE svg PUBLIC "-//W3C//DTD SVG 20010904//EN"
 "http://www.w3.org/TR/2001/REC-SVG-20010904/DTD/svg10.dtd">
<svg version="1.0" xmlns="http://www.w3.org/2000/svg"
 width="16.000000pt" height="16.000000pt" viewBox="0 0 16.000000 16.000000"
 preserveAspectRatio="xMidYMid meet">
<metadata>
Created by potrace 1.11, written by Peter Selinger 2001-2013
</metadata>
<g transform="translate(0.000000,16.000000) scale(0.004324,-0.004324)"
fill="#000000" stroke="none">
<path d="M2542 3540 c-15 -9 -33 -24 -40 -33 -7 -8 -22 -14 -32 -12 -10 2 -29
-8 -43 -23 -13 -15 -34 -35 -45 -44 -58 -47 -22 -148 53 -148 9 0 15 -10 16
-22 0 -13 2 -31 4 -41 3 -14 -1 -17 -13 -11 -37 15 -57 10 -57 -16 0 -18 6
-26 23 -28 12 -2 22 2 22 8 0 7 -7 10 -15 7 -17 -7 -29 8 -20 24 5 7 13 5 26
-7 31 -28 48 -11 47 45 0 48 -1 49 -33 55 -33 7 -61 30 -66 56 -6 28 11 69 30
75 11 3 26 17 35 30 10 16 26 25 42 25 14 0 34 11 47 26 29 33 90 47 132 29
36 -14 75 -63 75 -93 0 -11 6 -22 14 -25 8 -3 22 -17 31 -30 21 -33 6 -72 -37
-91 -29 -12 -30 -14 -10 -15 27 -1 72 40 72 66 0 36 -13 62 -31 68 -11 4 -23
22 -29 44 -23 85 -123 126 -198 81z"/>
<path d="M2634 3500 c48 -24 63 -26 42 -4 -9 9 -31 18 -49 20 l-32 4 39 -20z"/>
<path d="M2690 3441 c0 -12 5 -21 10 -21 6 0 10 6 10 14 0 8 -4 18 -10 21 -5
3 -10 -3 -10 -14z"/>
<path d="M2495 3289 c-17 -7 -16 -8 8 -8 26 -1 27 -3 27 -51 0 -29 -7 -61 -15
-74 -14 -21 -14 -25 1 -37 28 -23 68 16 42 42 -9 9 -13 36 -13 71 1 61 -10 73
-50 57z m50 -159 c-5 -8 -11 -8 -17 -2 -6 6 -7 16 -3 22 5 8 11 8 17 2 6 -6 7
-16 3 -22z"/>
<path d="M2564 3288 c-3 -4 5 -8 18 -8 22 0 24 -4 25 -52 0 -32 -5 -58 -14
-66 -17 -17 -13 -32 11 -46 13 -9 20 -7 32 8 12 17 12 22 -1 35 -8 9 -15 42
-17 75 -3 54 -5 60 -26 61 -13 1 -25 -2 -28 -7z m56 -158 c-18 -11 -24 -6 -16
16 5 14 9 15 19 5 9 -9 9 -14 -3 -21z"/>
<path d="M2649 3290 c-8 -6 -5 -9 12 -12 22 -3 24 -7 21 -45 -3 -39 -1 -42 33
-59 32 -15 38 -15 51 -3 12 13 12 17 0 34 -13 17 -18 18 -35 8 -33 -20 -38
-16 -34 31 3 36 1 44 -15 48 -11 3 -26 2 -33 -2z m106 -110 c-5 -8 -11 -8 -17
-2 -6 6 -7 16 -3 22 5 8 11 8 17 2 6 -6 7 -16 3 -22z"/>
<path d="M1622 2849 c-26 -13 -51 -36 -64 -58 -14 -25 -35 -43 -65 -55 -47
-20 -88 -62 -111 -116 -18 -42 -24 -354 -8 -409 10 -32 38 -67 83 -102 17 -14
20 -28 21 -90 0 -41 3 -89 7 -107 9 -55 44 -138 76 -182 26 -35 30 -49 27 -92
l-3 -50 -216 -73 c-211 -70 -251 -88 -296 -137 -26 -27 -60 -100 -68 -146 -3
-17 -14 -77 -25 -132 -11 -55 -22 -115 -25 -133 -3 -17 -26 -138 -52 -267 -52
-272 -55 -325 -22 -396 12 -27 24 -51 26 -54 2 -3 -158 -5 -354 -4 -197 0
-368 -3 -380 -8 -31 -10 -40 -53 -18 -78 18 -20 43 -20 1765 -20 1680 0 1748
1 1763 18 21 23 21 42 3 67 -14 19 -30 20 -383 20 -202 0 -367 2 -366 5 1 3
11 26 23 52 24 54 28 129 11 213 -6 33 -13 71 -16 85 -6 32 -44 236 -90 475
-46 240 -66 288 -148 347 -16 12 -126 53 -245 93 l-217 73 -3 45 c-3 39 2 54
32 97 51 74 76 164 78 277 l2 93 36 24 c63 42 73 78 74 265 1 91 -4 190 -11
222 -20 99 -83 178 -182 226 l-56 28 -280 3 c-270 2 -282 2 -323 -19z m609
-102 c43 -19 92 -66 117 -111 14 -25 17 -62 19 -196 1 -111 -1 -148 -6 -114
-11 65 -23 87 -68 121 l-36 28 -337 0 -337 0 -36 -28 c-20 -15 -46 -47 -57
-70 l-19 -42 -1 115 c0 154 19 187 118 205 30 5 52 29 52 58 0 20 17 41 39 48
7 3 126 4 265 3 205 -1 258 -4 287 -17z m10 -395 c15 -19 17 -46 17 -219 -1
-245 -12 -293 -89 -377 -72 -79 -140 -109 -244 -110 -66 0 -90 4 -137 26 -74
34 -133 95 -172 177 l-30 66 -3 205 c-2 225 3 246 54 252 16 2 154 3 307 2
273 -1 279 -1 297 -22z m-764 -69 c-3 -10 -5 -2 -5 17 0 19 2 27 5 18 2 -10 2
-26 0 -35z m304 -724 c62 -18 73 -20 144 -20 46 0 91 7 130 21 33 12 67 23 76
26 14 5 17 -2 17 -37 1 -41 14 -61 45 -72 7 -2 5 -20 -7 -51 -70 -183 -329
-234 -471 -91 -47 47 -88 136 -66 143 25 8 44 41 46 79 3 48 1 46 29 28 13 -9
39 -20 57 -26z m-232 -147 c20 -80 78 -155 157 -205 141 -88 320 -80 460 21
52 38 120 139 129 192 6 36 9 40 28 34 174 -53 325 -112 353 -136 40 -35 45
-50 84 -258 18 -91 34 -174 36 -185 2 -11 7 -36 10 -55 4 -19 8 -44 11 -55 23
-113 63 -344 63 -363 0 -34 -36 -98 -67 -120 -40 -27 -95 -44 -106 -33 -6 6
-10 154 -10 373 1 392 -2 411 -52 444 -24 16 -80 17 -725 17 -633 0 -702 -2
-724 -17 -52 -34 -53 -44 -54 -426 0 -195 -1 -365 -1 -376 -2 -44 -100 -10
-147 51 -21 28 -26 47 -28 92 -1 51 10 138 19 153 2 3 6 26 10 50 3 25 10 63
15 85 5 22 12 56 15 75 3 19 12 69 20 110 8 41 26 136 40 210 14 74 30 149 36
166 19 60 59 84 237 145 92 32 170 58 173 58 3 1 11 -21 18 -47z m1041 -801
l0 -366 -670 0 c-632 0 -670 1 -671 17 0 10 0 146 0 303 0 157 0 314 0 349 l1
63 670 0 670 0 0 -366z"/>
<path d="M1867 736 c-54 -20 -85 -52 -101 -105 -21 -73 2 -136 68 -185 39 -29
133 -29 172 0 65 48 89 112 68 183 -27 93 -117 139 -207 107z m97 -115 c24
-26 17 -60 -16 -84 l-28 -21 -27 21 c-34 25 -39 47 -19 78 20 31 65 33 90 6z"/>
<path d="M2855 2227 c-3 -7 -4 -107 -3 -222 l3 -210 235 0 235 0 0 220 0 220
-233 3 c-183 2 -234 0 -237 -11z m460 -22 c0 -19 -7 -20 -225 -20 -193 0 -225
2 -226 15 0 8 1 18 2 21 2 3 103 5 226 5 216 -1 223 -2 223 -21z m-5 -46 c3
-4 5 -85 5 -181 l0 -173 -222 0 c-192 0 -223 2 -224 15 -3 29 -5 335 -3 340 4
8 438 7 444 -1z"/>
<path d="M2908 2203 c6 -2 18 -2 25 0 6 3 1 5 -13 5 -14 0 -19 -2 -12 -5z"/>
<path d="M2906 2132 c-3 -6 -2 -13 3 -16 5 -3 18 -24 30 -46 18 -35 19 -41 6
-46 -8 -4 -15 -14 -15 -23 0 -13 11 -16 60 -17 52 -1 60 2 60 18 0 11 -7 18
-20 18 -11 0 -20 -4 -20 -9 0 -4 -12 -6 -26 -3 -33 6 -19 20 26 24 33 3 35 5
38 46 l3 42 -58 0 c-33 0 -64 5 -70 11 -7 7 -13 7 -17 1z m131 -50 c6 -26 -9
-42 -36 -37 -9 2 -21 4 -27 4 -9 1 -34 42 -34 55 0 1 20 3 45 2 40 0 46 -3 52
-24z"/>
<path d="M3098 2129 c-8 -6 4 -9 31 -9 24 0 41 3 37 7 -10 10 -53 11 -68 2z"/>
<path d="M3094 2098 c-3 -4 38 -8 90 -8 53 0 96 3 96 8 0 10 -180 10 -186 0z"/>
<path d="M3134 2053 c10 -10 136 -11 142 -1 3 4 -30 8 -72 8 -43 0 -74 -3 -70
-7z"/>
<path d="M3095 2020 c3 -5 8 -10 11 -10 2 0 4 5 4 10 0 6 -5 10 -11 10 -5 0
-7 -4 -4 -10z"/>
<path d="M3134 2022 c6 -10 142 -9 152 1 4 4 -30 7 -75 7 -45 0 -80 -4 -77 -8z"/>
<path d="M3090 1989 c0 -5 5 -7 10 -4 6 3 10 8 10 11 0 2 -4 4 -10 4 -5 0 -10
-5 -10 -11z"/>
<path d="M3134 1992 c6 -10 132 -9 142 1 4 4 -27 7 -70 7 -42 0 -75 -4 -72 -8z"/>
<path d="M2900 1940 c-5 -9 -6 -26 -3 -38 5 -19 12 -22 59 -22 36 0 54 4 55
13 0 6 2 22 5 35 2 13 -1 23 -9 23 -70 7 -99 4 -107 -11z m98 -22 c-3 -20 -9
-23 -45 -24 -39 0 -43 2 -43 23 0 21 5 23 46 23 41 0 45 -2 42 -22z"/>
<path d="M3042 1952 c-7 -2 -12 -19 -12 -38 l0 -34 60 0 60 0 0 35 c0 19 -3
36 -7 36 -24 4 -91 5 -101 1z m93 -37 c0 -17 -7 -20 -45 -20 -33 0 -45 4 -46
15 -1 27 7 31 49 28 34 -2 42 -7 42 -23z"/>
<path d="M3177 1948 c-9 -4 -14 -16 -12 -26 2 -9 4 -23 4 -30 1 -9 17 -12 58
-10 55 3 57 4 59 31 0 15 -4 31 -10 35 -16 10 -82 10 -99 0z m91 -30 c-3 -20
-9 -23 -45 -23 -38 -1 -43 2 -43 22 0 21 5 23 46 23 41 0 45 -2 42 -22z"/>
<path d="M2900 1858 c0 -5 25 -8 55 -8 30 0 55 3 55 8 0 4 -25 7 -55 7 -30 0
-55 -3 -55 -7z"/>
<path d="M3037 1858 c-7 -4 17 -8 52 -8 35 0 61 3 57 7 -9 10 -94 10 -109 1z"/>
<path d="M3174 1858 c-3 -4 21 -8 52 -8 32 0 54 3 50 7 -9 10 -96 10 -102 1z"/>
<path d="M2897 1828 c-7 -4 3 -8 26 -8 20 0 37 4 37 8 0 10 -46 10 -63 0z"/>
<path d="M3040 1830 c-11 -7 -4 -10 25 -9 31 0 36 2 20 9 -26 11 -28 11 -45 0z"/>
<path d="M3170 1829 c0 -5 14 -9 32 -9 36 0 31 11 -7 15 -14 2 -25 -1 -25 -6z"/>
<path d="M140 1487 c-52 -17 -114 -84 -129 -140 -50 -179 133 -332 298 -250
l44 22 88 -85 c51 -50 92 -83 99 -79 17 10 12 18 -77 108 l-82 83 24 48 c47
92 14 211 -74 269 -48 32 -136 43 -191 24z m144 -42 c137 -65 138 -254 2 -316
-23 -10 -54 -19 -71 -19 -49 0 -111 35 -144 80 -26 36 -29 49 -28 99 2 67 31
118 84 148 43 25 114 28 157 8z"/>
</g>
</svg>
